<svg version="1.1" id="Layer_1" xmlns="http://www.w3.org/2000/svg" xmlns:xlink="http://www.w3.org/1999/xlink" x="0px" y="0px"
	 width="100%" viewBox="0 0 1080 1080" enable-background="new 0 0 1080 1080" xml:space="preserve">
<path fill="#000000" opacity="1.000000" stroke="none" 
	d="
M606.000000,1081.000000 
	C404.023254,1081.000000 202.546509,1081.000000 1.034878,1081.000000 
	C1.034878,721.064819 1.034878,361.129578 1.034878,1.097191 
	C360.893646,1.097191 720.787354,1.097191 1080.840576,1.097191 
	C1080.840576,360.999939 1080.840576,720.999939 1080.840576,1081.000000 
	C922.795837,1081.000000 764.647888,1081.000000 606.000000,1081.000000 
M335.028595,599.169495 
	C334.119934,598.806519 333.211273,598.443481 332.040619,597.476501 
	C331.458923,597.375061 330.877228,597.273621 329.568634,597.173340 
	C327.737793,599.261169 325.512054,601.156189 324.336609,603.564026 
	C324.018158,604.216370 326.653473,607.282227 328.325836,607.712036 
	C330.975830,608.393188 334.365540,608.878357 336.093994,604.427490 
	C335.736755,602.914429 335.379517,601.401428 335.028595,599.169495 
M279.047180,516.503235 
	C279.047180,516.503235 279.139557,516.933411 278.987213,517.725525 
	C278.946838,518.800476 278.906494,519.875427 278.229523,520.737793 
	C268.892151,513.816833 259.670135,506.731781 250.164948,500.049530 
	C245.907181,497.056274 241.009186,499.918854 240.998672,505.144867 
	C240.968597,520.083984 241.092239,535.023376 241.002258,550.800415 
	C241.002258,552.989258 241.002258,555.178101 241.002258,557.518372 
	C239.305847,556.820312 238.161453,556.349365 236.739258,555.268066 
	C231.331833,551.183289 225.979553,547.022522 220.493591,543.046082 
	C217.774246,541.075073 214.748016,540.858215 212.310974,543.499329 
	C209.841354,546.175781 210.413925,558.233948 213.259674,560.639893 
	C217.708893,564.401611 222.472946,567.790833 227.484863,571.962341 
	C228.675568,572.829163 229.858810,573.706482 231.058197,574.561157 
	C237.809830,579.372314 244.449295,584.354126 251.366776,588.914001 
	C255.003464,591.311218 257.661987,589.735535 259.278992,584.961975 
	C259.501160,581.360779 259.897430,577.760437 259.915039,574.158264 
	C259.987732,559.313843 259.945465,544.468872 259.945465,528.968567 
	C264.716949,532.297607 268.794891,535.142700 273.156189,538.632385 
	C278.473267,542.524902 283.790375,546.417480 289.154633,551.092590 
	C288.831940,553.827515 290.051636,555.004761 292.792511,554.936401 
	C297.210205,554.826050 301.631134,554.845459 306.921509,554.898315 
	C310.372528,554.261169 313.855896,552.957092 317.267975,553.122559 
	C324.897827,553.492676 332.492188,554.594910 339.620026,555.953491 
	C329.224182,564.961731 326.738647,576.725830 328.142761,589.696899 
	C328.271393,590.885620 330.668335,592.971985 331.281372,592.736877 
	C332.744019,592.175781 334.687683,590.573181 334.831451,589.220520 
	C336.444489,574.041138 345.232330,564.304443 357.873077,556.912476 
	C365.131195,552.668091 372.336426,548.035034 378.611847,542.496399 
	C384.317200,537.460876 387.483521,527.190491 382.996796,518.567322 
	C379.729584,515.040161 376.911407,510.898804 373.101624,508.113953 
	C365.195251,502.334686 356.024811,500.175293 345.755249,500.675140 
	C349.177704,497.473389 352.600159,494.271667 356.608612,490.678162 
	C357.755371,488.907166 359.179779,487.255524 360.001373,485.344727 
	C363.762329,476.597229 364.373932,467.812012 359.720551,459.124481 
	C353.592712,447.684296 336.605194,444.245728 323.284851,448.906036 
	C320.889587,449.785492 318.494324,450.664948 316.117157,451.537781 
	C315.075653,450.167694 314.158661,448.961426 313.966370,447.448914 
	C316.238312,446.529877 318.712555,445.886353 320.626801,444.480347 
	C321.055847,444.165161 319.859833,440.951813 318.842163,439.461945 
	C311.254211,428.353516 303.430359,417.405853 295.873047,406.277008 
	C291.730682,400.177032 287.380829,400.684601 283.555237,405.983276 
	C275.479218,417.168976 267.539001,428.458679 259.867798,439.923004 
	C258.897675,441.372803 259.144775,444.608734 260.154663,446.144928 
	C261.214142,447.756592 263.352020,448.618622 266.046570,446.647461 
	C269.969391,443.777802 274.673309,441.975922 279.139679,439.669464 
	C279.139679,462.486084 279.139679,484.722382 278.989319,507.862305 
	C279.048187,510.601410 279.107025,513.340515 279.047180,516.503235 
M450.712036,548.136963 
	C454.706512,548.297180 457.168884,546.573303 458.234375,542.579834 
	C458.987946,539.755432 460.298828,537.084290 461.262695,534.310608 
	C465.048828,523.415405 468.795990,512.506714 472.662537,501.298889 
	C473.371918,502.325317 474.251526,503.151215 474.592499,504.159302 
	C478.976685,517.121033 483.529266,530.035095 487.465515,543.133606 
	C488.690948,547.211487 490.810089,549.300842 494.546661,548.800842 
	C498.543549,548.265869 503.326385,548.508728 505.007812,543.094238 
	C506.804993,537.307129 508.950836,531.628601 510.925293,525.896057 
	C514.635986,515.122498 518.139343,504.272491 522.098511,493.591278 
	C525.109314,485.468689 526.069336,476.144165 534.934753,471.176758 
	C537.420227,469.784119 536.189636,465.437775 533.157532,465.076904 
	C527.584351,464.413605 521.932922,464.021179 516.328369,464.147766 
	C512.759827,464.228394 510.960144,468.941193 513.522095,471.534821 
	C516.166626,474.212067 516.327759,476.653839 515.138672,479.942261 
	C513.191956,485.326385 511.681580,490.866486 509.873596,496.303009 
	C506.884552,505.290863 503.805115,514.248718 500.689301,523.438782 
	C499.700378,521.525879 498.723206,520.153381 498.242950,518.624878 
	C494.332886,506.180725 490.345062,493.755371 486.814850,481.202301 
	C486.111816,478.702209 487.126923,475.654816 487.611298,472.905884 
	C487.978821,470.820404 489.751953,468.356934 489.083191,466.889496 
	C488.406311,465.404388 485.532806,464.256500 483.557251,464.149719 
	C477.245941,463.808594 470.884918,463.734131 464.586121,464.173523 
	C462.418732,464.324677 459.969299,465.933655 458.500397,467.618958 
	C457.984985,468.210327 459.949036,471.063812 460.926910,472.802216 
	C461.280823,473.431305 462.276855,473.705933 462.612366,474.337524 
	C464.762726,478.385681 469.026550,481.885559 467.319672,487.106110 
	C464.479523,495.792511 461.190460,504.331970 458.097107,512.935730 
	C456.802216,516.537354 455.524475,520.145081 453.841797,524.863647 
	C449.220398,510.801941 445.092590,498.090607 440.853027,485.416687 
	C439.139648,480.294769 436.726257,475.474884 441.587402,470.413330 
	C443.595947,468.321991 441.088928,464.230347 437.696198,464.101654 
	C430.210907,463.817688 422.700928,463.852722 415.217163,464.156372 
	C413.817780,464.213165 411.779510,465.897308 411.338104,467.253998 
	C410.905731,468.582977 411.617737,471.163696 412.721222,471.966278 
	C418.685516,476.304443 420.160217,483.196747 422.480865,489.319000 
	C429.249176,507.175049 435.586182,525.208862 441.493378,543.367798 
	C443.121979,548.374084 445.494507,549.567993 450.712036,548.136963 
M787.793701,547.969788 
	C797.943787,547.966125 808.099792,547.746704 818.242004,548.026855 
	C826.439270,548.253174 833.989380,546.151794 840.794373,542.004272 
	C854.130798,533.876099 856.755981,515.096375 845.736328,504.436249 
	C842.802246,501.597931 838.930298,499.729218 835.377991,497.340759 
	C835.753906,496.989166 836.160400,496.439362 836.703430,496.126221 
	C846.458984,490.500702 845.255554,473.287933 834.814819,468.574799 
	C819.082886,461.473175 802.020447,463.649048 785.420837,464.682159 
	C779.989380,465.020172 779.300720,468.889496 783.390686,472.771057 
	C786.586670,475.804169 788.200806,479.098938 788.141418,483.634460 
	C787.941162,498.933624 787.942627,514.238342 788.129944,529.537720 
	C788.181213,533.726685 786.477234,536.514587 783.634277,539.300171 
	C782.262390,540.644470 780.987976,543.514099 781.541260,544.992676 
	C782.084900,546.445557 784.999390,547.011353 787.793701,547.969788 
M732.924133,532.503052 
	C732.610535,531.244568 731.987915,529.974121 732.035889,528.729553 
	C732.264404,522.801331 732.635498,516.877502 733.033569,510.957306 
	C733.376221,505.860474 737.544006,501.473358 742.357910,501.011078 
	C747.761536,500.492249 751.304260,502.648712 752.043762,509.035370 
	C753.011353,517.391541 752.796143,525.909546 752.649963,534.350281 
	C752.618164,536.188660 750.664490,537.963318 749.709290,539.825378 
	C748.871277,541.459167 747.128418,544.026367 747.654907,544.683533 
	C748.909729,546.249939 751.215210,547.684814 753.192993,547.826965 
	C758.829651,548.232117 764.514648,547.970642 770.180603,547.960266 
	C772.595337,547.955872 775.794739,548.729004 776.091431,545.258179 
	C776.265991,543.216858 774.781494,541.022949 774.000366,538.913452 
	C773.009949,536.238647 771.278931,533.625732 771.100159,530.905212 
	C770.675049,524.434387 771.299072,517.895752 770.894348,511.422333 
	C770.460632,504.484161 768.928345,497.880249 762.817383,493.217834 
	C755.966553,487.990845 743.828613,487.294312 736.440063,492.049133 
	C735.253906,492.812469 733.986206,493.449036 731.919617,494.617035 
	C732.231628,488.217346 732.525391,482.791351 732.749634,477.362518 
	C732.879761,474.211273 733.589966,470.873444 732.818604,467.940552 
	C731.338501,462.312531 731.056702,462.170013 725.761658,463.706116 
	C721.672974,464.892334 717.687378,466.456604 713.704895,467.980713 
	C708.536499,469.958679 708.058350,472.544312 711.168884,476.836578 
	C712.692017,478.938354 713.847473,481.838470 713.886536,484.396881 
	C714.127991,500.224060 714.134033,516.058960 713.870422,531.885559 
	C713.828186,534.417114 711.951233,536.890747 711.078857,539.444580 
	C710.384277,541.477600 709.051697,543.907837 709.649780,545.568542 
	C710.110657,546.848328 713.098450,547.760254 715.017456,547.869080 
	C720.332764,548.170471 725.689758,548.180847 731.003357,547.860840 
	C733.263306,547.724792 735.456360,546.478821 737.679810,545.737244 
	C736.850281,543.342285 736.065979,540.930420 735.176208,538.558044 
	C734.516479,536.799072 733.719849,535.091431 732.924133,532.503052 
M563.818054,493.552551 
	C563.217834,492.409882 562.123718,491.278290 562.097778,490.122742 
	C561.933594,482.798096 562.065918,475.467468 561.977417,468.140289 
	C561.923828,463.702911 559.792480,462.073853 555.568298,463.468384 
	C550.882751,465.015259 546.286072,466.855743 541.725159,468.747955 
	C538.227478,470.199097 537.209167,473.572021 539.915466,476.214203 
	C543.648132,479.858490 544.029907,484.208649 544.029419,488.866577 
	C544.027954,501.691132 544.173218,514.518127 543.954651,527.338867 
	C543.878052,531.831909 543.771912,536.467529 539.827820,540.010315 
	C538.616760,541.098206 537.717346,544.186157 538.400085,545.314270 
	C539.270203,546.751953 541.859131,547.750549 543.763794,547.849670 
	C549.743408,548.160767 555.758423,548.140625 561.739807,547.846069 
	C563.442688,547.762207 566.106934,546.625671 566.489014,545.398560 
	C566.989685,543.790771 565.854004,541.533264 565.071594,539.705322 
	C564.268372,537.828674 562.222290,536.168152 562.143921,534.351685 
	C561.806824,526.538269 561.909119,518.700989 562.022217,510.874939 
	C562.085510,506.494354 566.785522,501.526306 571.016663,501.012085 
	C576.764343,500.313568 579.818665,501.759399 580.818787,508.065247 
	C582.025879,515.676208 581.996704,523.539062 581.846924,531.280212 
	C581.792175,534.112549 579.775452,536.880127 578.811951,539.730713 
	C578.110413,541.806458 577.056396,544.072144 577.386475,546.048279 
	C577.536133,546.944641 580.642822,547.818054 582.437805,547.882996 
	C588.592102,548.105957 594.769165,548.155273 600.915344,547.838501 
	C602.546814,547.754456 604.974243,546.436035 605.449951,545.113770 
	C605.965393,543.680908 604.742981,541.537354 604.073364,539.782043 
	C602.791626,536.422424 600.495850,533.197998 600.182129,529.774353 
	C599.561584,523.002869 600.208496,516.126160 599.951111,509.307373 
	C599.670288,501.868378 596.825317,495.267242 590.099243,491.743347 
	C581.557190,487.268066 572.726318,487.433258 563.818054,493.552551 
M906.605652,547.138306 
	C916.521667,550.571960 925.875122,550.009521 934.355713,542.221313 
	C935.276917,546.636719 936.917236,549.863953 940.959717,548.851318 
	C946.115967,547.559631 951.173035,545.636536 956.016968,543.425232 
	C958.795044,542.156982 959.091431,537.441895 956.495300,536.219116 
	C951.853638,534.032898 951.948486,530.355469 951.963745,526.279846 
	C952.035095,507.142914 951.925781,488.004974 952.085266,468.869049 
	C952.116577,465.107361 950.650452,462.667816 947.143372,463.546021 
	C941.803955,464.883026 936.559753,466.932617 931.616821,469.371979 
	C929.341309,470.494995 925.745850,472.944672 929.793457,476.177368 
	C934.776245,480.156860 934.340698,485.276276 933.697510,490.668549 
	C915.127991,484.769989 900.729858,493.607330 894.466980,508.680511 
	C889.082458,521.639832 889.756714,536.912781 906.605652,547.138306 
M691.506958,533.139038 
	C683.530640,536.955750 676.056091,537.059998 669.602417,530.083374 
	C663.243103,523.208618 663.188721,514.797302 664.474915,506.367767 
	C664.821838,504.093872 666.917236,501.528595 668.933472,500.172394 
	C674.965942,496.114410 679.602783,499.293762 683.015076,505.584991 
	C684.801819,508.879211 685.754822,512.862427 688.212219,515.472778 
	C689.846985,517.209290 693.692627,518.035828 696.146362,517.483276 
	C698.368103,516.982910 701.268188,514.331726 701.747314,512.160645 
	C703.687073,503.371063 697.859924,494.170105 689.299255,490.961823 
	C676.452759,486.147339 662.044373,489.242371 653.490723,500.150299 
	C645.550720,510.275543 643.238831,523.101685 649.770447,534.487122 
	C658.333618,549.413879 669.740234,550.030212 681.819153,548.657837 
	C690.530701,547.668213 697.544373,542.992981 701.789429,535.099487 
	C702.702942,533.400940 702.094360,530.883789 702.186890,528.743713 
	C699.992554,529.218567 697.715210,529.471680 695.634399,530.250122 
	C694.352295,530.729797 693.370056,532.010986 691.506958,533.139038 
M858.862183,546.999207 
	C867.113892,547.248413 875.374207,547.812317 883.612793,547.584717 
	C886.700073,547.499451 887.970154,543.235535 885.695068,541.295410 
	C881.418335,537.648010 880.970093,532.936340 880.979309,527.904541 
	C881.000122,516.572205 880.782166,505.235168 881.059204,493.909790 
	C881.162842,489.674164 879.285522,488.071198 875.798889,489.130066 
	C870.204773,490.828979 864.701416,492.995483 859.441101,495.545074 
	C857.217407,496.622894 856.077698,499.169678 858.776489,501.540009 
	C862.834351,505.104156 863.413330,509.715851 863.083740,514.828003 
	C862.751953,519.972656 863.411011,525.197327 862.870972,530.306091 
	C862.554443,533.300720 860.935059,536.232483 859.549011,539.016907 
	C858.327698,541.470520 856.045776,543.570740 858.862183,546.999207 
M635.013306,529.265381 
	C635.011353,517.782715 635.033081,506.300018 634.997009,494.817444 
	C634.980164,489.440430 633.105957,487.675293 627.979675,489.230591 
	C623.169617,490.689880 618.593811,492.980347 614.013306,495.116028 
	C611.047729,496.498657 610.861328,499.138550 612.881897,501.201080 
	C616.560974,504.956512 617.267029,509.294250 617.044617,514.253174 
	C616.776367,520.231995 617.273254,526.253113 616.840698,532.212585 
	C616.673218,534.520203 614.832275,536.692993 613.820190,538.956970 
	C612.963562,540.873169 611.146667,543.229065 611.686096,544.664673 
	C612.266602,546.209595 615.043518,547.703003 616.954712,547.830383 
	C622.918762,548.228088 628.931213,548.097656 634.914490,547.882324 
	C636.567627,547.822876 639.327209,547.044128 639.571289,546.084595 
	C640.028564,544.287109 639.196777,542.060303 638.580566,540.113647 
	C637.521118,536.766479 636.215637,533.497192 635.013306,529.265381 
M626.583313,485.074310 
	C636.659424,482.226105 640.684021,473.718292 635.239136,466.776306 
	C631.453430,461.949707 625.569092,460.522461 619.909180,463.058014 
	C615.536560,465.016846 611.896301,472.575195 613.109375,477.176483 
	C614.478333,482.369476 619.653137,485.763214 626.583313,485.074310 
M873.628662,483.841827 
	C874.814331,482.976898 876.053711,482.176147 877.176575,481.236267 
	C882.824463,476.508698 883.252808,470.017487 878.455688,465.969727 
	C872.782043,461.182465 864.028015,466.274994 861.250488,471.634613 
	C858.944092,476.085144 860.446594,482.274384 864.431702,483.543182 
	C867.008484,484.363678 870.000549,483.879639 873.628662,483.841827 
z"/>
<path fill="#093DB6" opacity="1.000000" stroke="none" 
	d="
M450.359985,548.360046 
	C445.494507,549.567993 443.121979,548.374084 441.493378,543.367798 
	C435.586182,525.208862 429.249176,507.175049 422.480865,489.319000 
	C420.160217,483.196747 418.685516,476.304443 412.721222,471.966278 
	C411.617737,471.163696 410.905731,468.582977 411.338104,467.253998 
	C411.779510,465.897308 413.817780,464.213165 415.217163,464.156372 
	C422.700928,463.852722 430.210907,463.817688 437.696198,464.101654 
	C441.088928,464.230347 443.595947,468.321991 441.587402,470.413330 
	C436.726257,475.474884 439.139648,480.294769 440.853027,485.416687 
	C445.092590,498.090607 449.220398,510.801941 453.841797,524.863647 
	C455.524475,520.145081 456.802216,516.537354 458.097107,512.935730 
	C461.190460,504.331970 464.479523,495.792511 467.319672,487.106110 
	C469.026550,481.885559 464.762726,478.385681 462.612366,474.337524 
	C462.276855,473.705933 461.280823,473.431305 460.926910,472.802216 
	C459.949036,471.063812 457.984985,468.210327 458.500397,467.618958 
	C459.969299,465.933655 462.418732,464.324677 464.586121,464.173523 
	C470.884918,463.734131 477.245941,463.808594 483.557251,464.149719 
	C485.532806,464.256500 488.406311,465.404388 489.083191,466.889496 
	C489.751953,468.356934 487.978821,470.820404 487.611298,472.905884 
	C487.126923,475.654816 486.111816,478.702209 486.814850,481.202301 
	C490.345062,493.755371 494.332886,506.180725 498.242950,518.624878 
	C498.723206,520.153381 499.700378,521.525879 500.689301,523.438782 
	C503.805115,514.248718 506.884552,505.290863 509.873596,496.303009 
	C511.681580,490.866486 513.191956,485.326385 515.138672,479.942261 
	C516.327759,476.653839 516.166626,474.212067 513.522095,471.534821 
	C510.960144,468.941193 512.759827,464.228394 516.328369,464.147766 
	C521.932922,464.021179 527.584351,464.413605 533.157532,465.076904 
	C536.189636,465.437775 537.420227,469.784119 534.934753,471.176758 
	C526.069336,476.144165 525.109314,485.468689 522.098511,493.591278 
	C518.139343,504.272491 514.635986,515.122498 510.925293,525.896057 
	C508.950836,531.628601 506.804993,537.307129 505.007812,543.094238 
	C503.326385,548.508728 498.543549,548.265869 494.546661,548.800842 
	C490.810089,549.300842 488.690948,547.211487 487.465515,543.133606 
	C483.529266,530.035095 478.976685,517.121033 474.592499,504.159302 
	C474.251526,503.151215 473.371918,502.325317 472.662537,501.298889 
	C468.795990,512.506714 465.048828,523.415405 461.262695,534.310608 
	C460.298828,537.084290 458.987946,539.755432 458.234375,542.579834 
	C457.168884,546.573303 454.706512,548.297180 450.359985,548.360046 
z"/>
<path fill="#093DB6" opacity="1.000000" stroke="none" 
	d="
M787.333618,547.968079 
	C784.999390,547.011353 782.084900,546.445557 781.541260,544.992676 
	C780.987976,543.514099 782.262390,540.644470 783.634277,539.300171 
	C786.477234,536.514587 788.181213,533.726685 788.129944,529.537720 
	C787.942627,514.238342 787.941162,498.933624 788.141418,483.634460 
	C788.200806,479.098938 786.586670,475.804169 783.390686,472.771057 
	C779.300720,468.889496 779.989380,465.020172 785.420837,464.682159 
	C802.020447,463.649048 819.082886,461.473175 834.814819,468.574799 
	C845.255554,473.287933 846.458984,490.500702 836.703430,496.126221 
	C836.160400,496.439362 835.753906,496.989166 835.377991,497.340759 
	C838.930298,499.729218 842.802246,501.597931 845.736328,504.436249 
	C856.755981,515.096375 854.130798,533.876099 840.794373,542.004272 
	C833.989380,546.151794 826.439270,548.253174 818.242004,548.026855 
	C808.099792,547.746704 797.943787,547.966125 787.333618,547.968079 
M806.982117,508.960602 
	C806.978271,516.120239 806.974731,523.279907 806.970581,530.439575 
	C806.968201,534.591553 808.065613,538.474487 812.945679,538.231750 
	C817.839966,537.988342 822.740356,536.758057 827.490295,535.431091 
	C828.844482,535.052795 830.179688,532.990417 830.682068,531.429443 
	C835.694702,515.854736 827.150757,504.610260 811.113037,504.201935 
	C809.775391,504.167908 808.372070,506.714233 806.982117,508.960602 
M824.738647,483.155334 
	C822.529175,477.300720 818.081360,474.587860 812.046448,473.995728 
	C808.793030,473.676483 806.953186,474.812408 806.979065,478.299774 
	C807.008545,482.279816 806.877747,486.265137 807.056152,490.237427 
	C807.108093,491.393005 807.661682,493.040222 808.527771,493.562714 
	C814.762939,497.323883 824.718689,491.391266 824.738647,483.155334 
z"/>
<path fill="#093DB6" opacity="1.000000" stroke="none" 
	d="
M732.954102,532.932007 
	C733.719849,535.091431 734.516479,536.799072 735.176208,538.558044 
	C736.065979,540.930420 736.850281,543.342285 737.679810,545.737183 
	C735.456360,546.478821 733.263306,547.724792 731.003357,547.860840 
	C725.689758,548.180847 720.332764,548.170471 715.017456,547.869080 
	C713.098450,547.760254 710.110657,546.848328 709.649780,545.568542 
	C709.051697,543.907837 710.384277,541.477600 711.078857,539.444580 
	C711.951233,536.890747 713.828186,534.417114 713.870422,531.885559 
	C714.134033,516.058960 714.127991,500.224060 713.886536,484.396881 
	C713.847473,481.838470 712.692017,478.938354 711.168884,476.836578 
	C708.058350,472.544312 708.536499,469.958679 713.704895,467.980713 
	C717.687378,466.456604 721.672974,464.892334 725.761658,463.706116 
	C731.056702,462.170013 731.338501,462.312531 732.818604,467.940552 
	C733.589966,470.873444 732.879761,474.211273 732.749634,477.362518 
	C732.525391,482.791351 732.231628,488.217346 731.919617,494.617035 
	C733.986206,493.449036 735.253906,492.812469 736.440063,492.049133 
	C743.828613,487.294312 755.966553,487.990845 762.817383,493.217834 
	C768.928345,497.880249 770.460632,504.484161 770.894348,511.422333 
	C771.299072,517.895752 770.675049,524.434387 771.100159,530.905212 
	C771.278931,533.625732 773.009949,536.238647 774.000366,538.913452 
	C774.781494,541.022949 776.265991,543.216858 776.091431,545.258179 
	C775.794739,548.729004 772.595337,547.955872 770.180603,547.960266 
	C764.514648,547.970642 758.829651,548.232117 753.192993,547.826965 
	C751.215210,547.684814 748.909729,546.249939 747.654907,544.683533 
	C747.128418,544.026367 748.871277,541.459167 749.709290,539.825378 
	C750.664490,537.963318 752.618164,536.188660 752.649963,534.350281 
	C752.796143,525.909546 753.011353,517.391541 752.043762,509.035370 
	C751.304260,502.648712 747.761536,500.492249 742.357910,501.011078 
	C737.544006,501.473358 733.376221,505.860474 733.033569,510.957306 
	C732.635498,516.877502 732.264404,522.801331 732.035889,528.729553 
	C731.987915,529.974121 732.610535,531.244568 732.954102,532.932007 
z"/>
<path fill="#093DB6" opacity="1.000000" stroke="none" 
	d="
M564.123779,493.292175 
	C572.726318,487.433258 581.557190,487.268066 590.099243,491.743347 
	C596.825317,495.267242 599.670288,501.868378 599.951111,509.307373 
	C600.208496,516.126160 599.561584,523.002869 600.182129,529.774353 
	C600.495850,533.197998 602.791626,536.422424 604.073364,539.782043 
	C604.742981,541.537354 605.965393,543.680908 605.449951,545.113770 
	C604.974243,546.436035 602.546814,547.754456 600.915344,547.838501 
	C594.769165,548.155273 588.592102,548.105957 582.437805,547.882996 
	C580.642822,547.818054 577.536133,546.944641 577.386475,546.048279 
	C577.056396,544.072144 578.110413,541.806458 578.811951,539.730713 
	C579.775452,536.880127 581.792175,534.112549 581.846924,531.280212 
	C581.996704,523.539062 582.025879,515.676208 580.818787,508.065247 
	C579.818665,501.759399 576.764343,500.313568 571.016663,501.012085 
	C566.785522,501.526306 562.085510,506.494354 562.022217,510.874939 
	C561.909119,518.700989 561.806824,526.538269 562.143921,534.351685 
	C562.222290,536.168152 564.268372,537.828674 565.071594,539.705322 
	C565.854004,541.533264 566.989685,543.790771 566.489014,545.398560 
	C566.106934,546.625671 563.442688,547.762207 561.739807,547.846069 
	C555.758423,548.140625 549.743408,548.160767 543.763794,547.849670 
	C541.859131,547.750549 539.270203,546.751953 538.400085,545.314270 
	C537.717346,544.186157 538.616760,541.098206 539.827820,540.010315 
	C543.771912,536.467529 543.878052,531.831909 543.954651,527.338867 
	C544.173218,514.518127 544.027954,501.691132 544.029419,488.866577 
	C544.029907,484.208649 543.648132,479.858490 539.915466,476.214203 
	C537.209167,473.572021 538.227478,470.199097 541.725159,468.747955 
	C546.286072,466.855743 550.882751,465.015259 555.568298,463.468384 
	C559.792480,462.073853 561.923828,463.702911 561.977417,468.140289 
	C562.065918,475.467468 561.933594,482.798096 562.097778,490.122742 
	C562.123718,491.278290 563.217834,492.409882 564.123779,493.292175 
z"/>
<path fill="#093DB6" opacity="1.000000" stroke="none" 
	d="
M906.221252,547.072266 
	C889.756714,536.912781 889.082458,521.639832 894.466980,508.680511 
	C900.729858,493.607330 915.127991,484.769989 933.697510,490.668549 
	C934.340698,485.276276 934.776245,480.156860 929.793457,476.177368 
	C925.745850,472.944672 929.341309,470.494995 931.616821,469.371979 
	C936.559753,466.932617 941.803955,464.883026 947.143372,463.546021 
	C950.650452,462.667816 952.116577,465.107361 952.085266,468.869049 
	C951.925781,488.004974 952.035095,507.142914 951.963745,526.279846 
	C951.948486,530.355469 951.853638,534.032898 956.495300,536.219116 
	C959.091431,537.441895 958.795044,542.156982 956.016968,543.425232 
	C951.173035,545.636536 946.115967,547.559631 940.959717,548.851318 
	C936.917236,549.863953 935.276917,546.636719 934.355713,542.221313 
	C925.875122,550.009521 916.521667,550.571960 906.221252,547.072266 
M911.384949,526.830688 
	C911.862000,527.690979 912.382751,528.530273 912.808838,529.415100 
	C914.956726,533.875549 918.306763,536.931702 923.389465,536.882568 
	C927.944763,536.838501 933.195129,532.455688 933.386108,526.974976 
	C933.637573,519.759460 932.842712,512.243042 930.843384,505.334839 
	C929.960510,502.284546 925.303467,499.113770 921.833191,498.330109 
	C917.428772,497.335541 913.076111,500.170410 911.256287,504.625214 
	C908.391296,511.638458 909.151733,518.919189 911.384949,526.830688 
z"/>
<path fill="#F29909" opacity="1.000000" stroke="none" 
	d="
M279.139679,506.958649 
	C279.139679,484.722382 279.139679,462.486084 279.139679,439.669464 
	C274.673309,441.975922 269.969391,443.777802 266.046570,446.647461 
	C263.352020,448.618622 261.214142,447.756592 260.154663,446.144928 
	C259.144775,444.608734 258.897675,441.372803 259.867798,439.923004 
	C267.539001,428.458679 275.479218,417.168976 283.555237,405.983276 
	C287.380829,400.684601 291.730682,400.177032 295.873047,406.277008 
	C303.430359,417.405853 311.254211,428.353516 318.842163,439.461945 
	C319.859833,440.951813 321.055847,444.165161 320.626801,444.480347 
	C318.712555,445.886353 316.238312,446.529877 313.562195,447.626709 
	C313.158051,447.804474 313.189148,447.897766 313.439392,447.572327 
	C308.948273,444.549713 304.206970,441.852539 298.279877,438.480804 
	C299.067322,442.593231 299.578888,445.265045 299.880615,448.278503 
	C294.977631,449.052338 297.833771,452.894989 296.597748,455.339050 
	C295.229889,467.922424 294.012695,480.141724 292.913330,492.371582 
	C292.267029,499.560608 285.677002,506.647064 279.139679,506.958649 
z"/>
<path fill="#093DB6" opacity="1.000000" stroke="none" 
	d="
M296.797913,454.979401 
	C297.833771,452.894989 294.977631,449.052338 300.284027,448.267761 
	C304.994598,447.909546 309.091858,447.903656 313.189148,447.897766 
	C313.189148,447.897766 313.158051,447.804474 313.199860,447.779816 
	C314.158661,448.961426 315.075653,450.167694 316.117157,451.537781 
	C318.494324,450.664948 320.889587,449.785492 323.556152,449.191467 
	C320.143494,451.546234 316.459595,453.615509 311.891632,456.181396 
	C313.571564,457.397369 315.368835,458.698303 317.001709,460.367981 
	C316.238800,462.348755 315.182434,463.944397 315.123871,465.575806 
	C314.910004,471.535614 315.026428,477.507355 315.023071,483.474579 
	C315.019836,489.214020 315.022369,494.953461 315.022369,500.599487 
	C324.421417,501.583435 332.447113,498.613800 342.146118,491.038635 
	C343.170868,492.916962 343.934326,494.745758 344.697754,496.574524 
	C346.715363,495.632385 348.744049,494.713043 350.747284,493.741272 
	C352.520416,492.881134 354.265259,491.962646 356.022644,491.069916 
	C352.600159,494.271667 349.177704,497.473389 345.787415,501.161102 
	C345.360535,502.331726 344.901520,503.016388 344.360046,503.824005 
	C345.909576,504.296600 347.261932,504.709045 348.646240,505.448364 
	C348.266327,507.912079 347.854431,510.048920 347.058777,512.169983 
	C345.104767,511.775726 343.511444,511.473236 341.967957,511.006012 
	C333.272369,508.373688 324.466766,507.093445 315.091431,508.426727 
	C315.091431,521.099304 315.091431,533.511536 314.729156,545.927246 
	C308.079163,545.237122 304.703888,548.840942 306.050690,554.810120 
	C301.631134,554.845459 297.210205,554.826050 292.792511,554.936401 
	C290.051636,555.004761 288.831940,553.827515 289.440857,550.587646 
	C293.531952,550.290100 297.097046,550.592834 297.062744,544.899658 
	C296.882141,514.926819 296.869110,484.952911 296.797913,454.979401 
z"/>
<path fill="#093DB6" opacity="1.000000" stroke="none" 
	d="
M691.880005,533.035645 
	C693.370056,532.010986 694.352295,530.729797 695.634399,530.250122 
	C697.715210,529.471680 699.992554,529.218567 702.186890,528.743713 
	C702.094360,530.883789 702.702942,533.400940 701.789429,535.099487 
	C697.544373,542.992981 690.530701,547.668213 681.819153,548.657837 
	C669.740234,550.030212 658.333618,549.413879 649.770447,534.487122 
	C643.238831,523.101685 645.550720,510.275543 653.490723,500.150299 
	C662.044373,489.242371 676.452759,486.147339 689.299255,490.961823 
	C697.859924,494.170105 703.687073,503.371063 701.747314,512.160645 
	C701.268188,514.331726 698.368103,516.982910 696.146362,517.483276 
	C693.692627,518.035828 689.846985,517.209290 688.212219,515.472778 
	C685.754822,512.862427 684.801819,508.879211 683.015076,505.584991 
	C679.602783,499.293762 674.965942,496.114410 668.933472,500.172394 
	C666.917236,501.528595 664.821838,504.093872 664.474915,506.367767 
	C663.188721,514.797302 663.243103,523.208618 669.602417,530.083374 
	C676.056091,537.059998 683.530640,536.955750 691.880005,533.035645 
z"/>
<path fill="#F29909" opacity="1.000000" stroke="none" 
	d="
M272.872803,537.987793 
	C268.794891,535.142700 264.716949,532.297607 259.945465,528.968567 
	C259.945465,544.468872 259.987732,559.313843 259.915039,574.158264 
	C259.897430,577.760437 259.501160,581.360779 258.879730,584.950562 
	C258.278717,565.349792 258.076965,545.760376 257.875183,526.171021 
	C257.341187,526.176025 256.807190,526.181030 256.273163,526.186096 
	C256.192993,527.803955 255.737473,529.510437 256.095154,531.024902 
	C258.023254,539.188232 252.836777,543.162415 246.941650,546.526428 
	C245.846970,547.151062 243.870880,546.231018 242.111237,545.998779 
	C241.993439,546.487305 241.574417,548.224976 241.155396,549.962646 
	C241.092239,535.023376 240.968597,520.083984 240.998672,505.144867 
	C241.009186,499.918854 245.907181,497.056274 250.164948,500.049530 
	C259.670135,506.731781 268.892151,513.816833 278.832397,521.053467 
	C284.034302,528.923035 283.464233,531.777466 276.365692,536.288635 
	C275.279938,536.978638 274.040924,537.427429 272.872803,537.987793 
z"/>
<path fill="#093DB6" opacity="1.000000" stroke="none" 
	d="
M858.510864,546.790100 
	C856.045776,543.570740 858.327698,541.470520 859.549011,539.016907 
	C860.935059,536.232483 862.554443,533.300720 862.870972,530.306091 
	C863.411011,525.197327 862.751953,519.972656 863.083740,514.828003 
	C863.413330,509.715851 862.834351,505.104156 858.776489,501.540009 
	C856.077698,499.169678 857.217407,496.622894 859.441101,495.545074 
	C864.701416,492.995483 870.204773,490.828979 875.798889,489.130066 
	C879.285522,488.071198 881.162842,489.674164 881.059204,493.909790 
	C880.782166,505.235168 881.000122,516.572205 880.979309,527.904541 
	C880.970093,532.936340 881.418335,537.648010 885.695068,541.295410 
	C887.970154,543.235535 886.700073,547.499451 883.612793,547.584717 
	C875.374207,547.812317 867.113892,547.248413 858.510864,546.790100 
z"/>
<path fill="#093DB6" opacity="1.000000" stroke="none" 
	d="
M635.013367,529.730286 
	C636.215637,533.497192 637.521118,536.766479 638.580566,540.113647 
	C639.196777,542.060303 640.028564,544.287109 639.571289,546.084595 
	C639.327209,547.044128 636.567627,547.822876 634.914490,547.882324 
	C628.931213,548.097656 622.918762,548.228088 616.954712,547.830383 
	C615.043518,547.703003 612.266602,546.209595 611.686096,544.664673 
	C611.146667,543.229065 612.963562,540.873169 613.820190,538.956970 
	C614.832275,536.692993 616.673218,534.520203 616.840698,532.212585 
	C617.273254,526.253113 616.776367,520.231995 617.044617,514.253174 
	C617.267029,509.294250 616.560974,504.956512 612.881897,501.201080 
	C610.861328,499.138550 611.047729,496.498657 614.013306,495.116028 
	C618.593811,492.980347 623.169617,490.689880 627.979675,489.230591 
	C633.105957,487.675293 634.980164,489.440430 634.997009,494.817444 
	C635.033081,506.300018 635.011353,517.782715 635.013367,529.730286 
z"/>
<path fill="#ED6B15" opacity="1.000000" stroke="none" 
	d="
M241.078827,550.381531 
	C241.574417,548.224976 241.993439,546.487305 242.111237,545.998779 
	C243.870880,546.231018 245.846970,547.151062 246.941650,546.526428 
	C252.836777,543.162415 258.023254,539.188232 256.095154,531.024902 
	C255.737473,529.510437 256.192993,527.803955 256.273163,526.186096 
	C256.807190,526.181030 257.341187,526.176025 257.875183,526.171021 
	C258.076965,545.760376 258.278717,565.349792 258.632782,585.268372 
	C257.661987,589.735535 255.003464,591.311218 251.366776,588.914001 
	C244.449295,584.354126 237.809830,579.372314 231.058197,574.561157 
	C229.858810,573.706482 228.675568,572.829163 227.634521,571.392700 
	C228.185013,569.605042 228.741013,568.414062 228.958954,567.164246 
	C229.756210,562.592224 232.257095,559.787170 236.993713,559.168213 
	C237.052658,559.247498 237.335114,559.215820 237.335114,559.215820 
	C237.335114,559.215820 237.069733,558.948425 237.047562,558.565247 
	C237.022629,557.414185 237.019852,556.646301 237.017059,555.878418 
	C238.161453,556.349365 239.305847,556.820312 241.002258,557.518372 
	C241.002258,555.178101 241.002258,552.989258 241.078827,550.381531 
z"/>
<path fill="#0072EA" opacity="1.000000" stroke="none" 
	d="
M356.315613,490.874023 
	C354.265259,491.962646 352.520416,492.881134 350.747284,493.741272 
	C348.744049,494.713043 346.715363,495.632385 344.697754,496.574524 
	C343.934326,494.745758 343.170868,492.916962 342.322296,490.727661 
	C348.962250,481.824402 348.685455,469.809448 342.130035,461.508270 
	C338.377777,456.756866 324.488922,454.734589 317.166107,459.999237 
	C315.368835,458.698303 313.571564,457.397369 311.891632,456.181396 
	C316.459595,453.615509 320.143494,451.546234 323.930359,449.127167 
	C336.605194,444.245728 353.592712,447.684296 359.720551,459.124481 
	C364.373932,467.812012 363.762329,476.597229 360.001373,485.344727 
	C359.179779,487.255524 357.755371,488.907166 356.315613,490.874023 
M320.546143,456.514008 
	C320.546143,456.514008 320.484100,456.542480 320.546143,456.514008 
z"/>
<path fill="#ED6B15" opacity="1.000000" stroke="none" 
	d="
M382.882721,519.342102 
	C387.483521,527.190491 384.317200,537.460876 378.611847,542.496399 
	C372.336426,548.035034 365.131195,552.668091 357.873077,556.912476 
	C345.232330,564.304443 336.444489,574.041138 334.831451,589.220520 
	C334.687683,590.573181 332.744019,592.175781 331.281372,592.736877 
	C330.668335,592.971985 328.271393,590.885620 328.142761,589.696899 
	C326.738647,576.725830 329.224182,564.961731 340.177246,555.610962 
	C344.234833,553.235352 347.735199,551.202148 351.583282,549.129517 
	C353.585846,548.330811 355.247955,547.587036 356.894226,546.809753 
	C366.031036,542.495911 372.664368,536.376892 372.586670,525.496216 
	C374.074493,525.789551 375.821075,526.437561 376.538177,525.843262 
	C378.856689,523.921997 380.796814,521.544067 382.882721,519.342102 
z"/>
<path fill="#ED6B15" opacity="1.000000" stroke="none" 
	d="
M273.014496,538.310059 
	C274.040924,537.427429 275.279938,536.978638 276.365692,536.288635 
	C283.464233,531.777466 284.034302,528.923035 279.150696,521.159790 
	C278.906494,519.875427 278.946838,518.800476 279.145233,517.233643 
	C279.425232,516.501221 279.379425,516.280518 279.165863,516.079590 
	C279.107025,513.340515 279.048187,510.601410 279.064514,507.410461 
	C285.677002,506.647064 292.267029,499.560608 292.913330,492.371582 
	C294.012695,480.141724 295.229889,467.922424 296.597778,455.339050 
	C296.869110,484.952911 296.882141,514.926819 297.062744,544.899658 
	C297.097046,550.592834 293.531952,550.290100 289.417297,550.196411 
	C283.790375,546.417480 278.473267,542.524902 273.014496,538.310059 
z"/>
<path fill="#F29909" opacity="1.000000" stroke="none" 
	d="
M236.934769,559.088928 
	C232.257095,559.787170 229.756210,562.592224 228.958954,567.164246 
	C228.741013,568.414062 228.185013,569.605042 227.443893,571.080444 
	C222.472946,567.790833 217.708893,564.401611 213.259674,560.639893 
	C210.413925,558.233948 209.841354,546.175781 212.310974,543.499329 
	C214.748016,540.858215 217.774246,541.075073 220.493591,543.046082 
	C225.979553,547.022522 231.331833,551.183289 236.878174,555.573242 
	C237.019852,556.646301 237.022629,557.414185 237.012207,558.598816 
	C236.999008,559.015564 236.934769,559.088928 236.934769,559.088928 
z"/>
<path fill="#F29909" opacity="1.000000" stroke="none" 
	d="
M626.290039,485.351318 
	C619.653137,485.763214 614.478333,482.369476 613.109375,477.176483 
	C611.896301,472.575195 615.536560,465.016846 619.909180,463.058014 
	C625.569092,460.522461 631.453430,461.949707 635.239136,466.776306 
	C640.684021,473.718292 636.659424,482.226105 626.290039,485.351318 
z"/>
<path fill="#0072EA" opacity="1.000000" stroke="none" 
	d="
M351.235565,549.168945 
	C347.735199,551.202148 344.234833,553.235352 340.417725,555.333740 
	C332.492188,554.594910 324.897827,553.492676 317.267975,553.122559 
	C313.855896,552.957092 310.372528,554.261169 306.486084,554.854248 
	C304.703888,548.840942 308.079163,545.237122 315.161987,545.980469 
	C319.023041,546.352112 322.168884,547.274170 325.139435,546.878906 
	C332.796997,545.859924 340.377075,544.258362 348.209869,543.099976 
	C349.739594,543.449768 351.047546,543.589050 352.734528,543.768799 
	C352.181610,544.919556 351.716644,545.595886 351.534149,546.341370 
	C351.310913,547.253662 351.324432,548.223816 351.235565,549.168945 
z"/>
<path fill="#093DB6" opacity="1.000000" stroke="none" 
	d="
M873.217590,483.911011 
	C870.000549,483.879639 867.008484,484.363678 864.431702,483.543182 
	C860.446594,482.274384 858.944092,476.085144 861.250488,471.634613 
	C864.028015,466.274994 872.782043,461.182465 878.455688,465.969727 
	C883.252808,470.017487 882.824463,476.508698 877.176575,481.236267 
	C876.053711,482.176147 874.814331,482.976898 873.217590,483.911011 
z"/>
<path fill="#F29909" opacity="1.000000" stroke="none" 
	d="
M382.939758,518.954712 
	C380.796814,521.544067 378.856689,523.921997 376.538177,525.843262 
	C375.821075,526.437561 374.074493,525.789551 372.479645,525.145874 
	C371.776611,523.530212 371.393188,522.479004 370.997375,521.051758 
	C366.764343,510.836548 358.046478,507.465332 348.614288,505.121490 
	C347.261932,504.709045 345.909576,504.296600 344.360046,503.824005 
	C344.901520,503.016388 345.360535,502.331726 346.012695,501.383240 
	C356.024811,500.175293 365.195251,502.334686 373.101624,508.113953 
	C376.911407,510.898804 379.729584,515.040161 382.939758,518.954712 
z"/>
<path fill="#ED6B15" opacity="1.000000" stroke="none" 
	d="
M335.810425,605.088440 
	C334.365540,608.878357 330.975830,608.393188 328.325836,607.712036 
	C326.653473,607.282227 324.018158,604.216370 324.336609,603.564026 
	C325.512054,601.156189 327.737793,599.261169 329.808777,597.493042 
	C327.443237,602.700256 328.928375,604.575745 335.810425,605.088440 
z"/>
<path fill="#F29909" opacity="1.000000" stroke="none" 
	d="
M335.952209,604.757935 
	C328.928375,604.575745 327.443237,602.700256 330.172241,597.492432 
	C330.877228,597.273621 331.458923,597.375061 332.291382,598.032776 
	C333.368866,599.022156 334.195557,599.455261 335.022278,599.888367 
	C335.379517,601.401428 335.736755,602.914429 335.952209,604.757935 
z"/>
<path fill="#ED6B15" opacity="1.000000" stroke="none" 
	d="
M335.025452,599.528931 
	C334.195557,599.455261 333.368866,599.022156 332.422363,598.334717 
	C333.211273,598.443481 334.119934,598.806519 335.025452,599.528931 
z"/>
<path fill="#F29909" opacity="1.000000" stroke="none" 
	d="
M279.106506,516.291382 
	C279.379425,516.280518 279.425232,516.501221 279.221405,516.837585 
	C279.139557,516.933411 279.047180,516.503235 279.106506,516.291382 
z"/>
<path fill="#000000" opacity="1.000000" stroke="none" 
	d="
M806.990723,508.511139 
	C808.372070,506.714233 809.775391,504.167908 811.113037,504.201935 
	C827.150757,504.610260 835.694702,515.854736 830.682068,531.429443 
	C830.179688,532.990417 828.844482,535.052795 827.490295,535.431091 
	C822.740356,536.758057 817.839966,537.988342 812.945679,538.231750 
	C808.065613,538.474487 806.968201,534.591553 806.970581,530.439575 
	C806.974731,523.279907 806.978271,516.120239 806.990723,508.511139 
z"/>
<path fill="#000000" opacity="1.000000" stroke="none" 
	d="
M824.839050,483.535339 
	C824.718689,491.391266 814.762939,497.323883 808.527771,493.562714 
	C807.661682,493.040222 807.108093,491.393005 807.056152,490.237427 
	C806.877747,486.265137 807.008545,482.279816 806.979065,478.299774 
	C806.953186,474.812408 808.793030,473.676483 812.046448,473.995728 
	C818.081360,474.587860 822.529175,477.300720 824.839050,483.535339 
z"/>
<path fill="#000000" opacity="1.000000" stroke="none" 
	d="
M911.212524,526.466248 
	C909.151733,518.919189 908.391296,511.638458 911.256287,504.625214 
	C913.076111,500.170410 917.428772,497.335541 921.833191,498.330109 
	C925.303467,499.113770 929.960510,502.284546 930.843384,505.334839 
	C932.842712,512.243042 933.637573,519.759460 933.386108,526.974976 
	C933.195129,532.455688 927.944763,536.838501 923.389465,536.882568 
	C918.306763,536.931702 914.956726,533.875549 912.808838,529.415100 
	C912.382751,528.530273 911.862000,527.690979 911.212524,526.466248 
z"/>
<path fill="#000000" opacity="1.000000" stroke="none" 
	d="
M313.439392,447.572327 
	C309.091858,447.903656 304.994598,447.909546 300.493896,447.926147 
	C299.578888,445.265045 299.067322,442.593231 298.279877,438.480804 
	C304.206970,441.852539 308.948273,444.549713 313.439392,447.572327 
z"/>
<path fill="#000000" opacity="1.000000" stroke="none" 
	d="
M347.988098,542.889587 
	C340.377075,544.258362 332.796997,545.859924 325.139435,546.878906 
	C322.168884,547.274170 319.023041,546.352112 315.524231,545.976990 
	C315.091431,533.511536 315.091431,521.099304 315.091431,508.426727 
	C324.466766,507.093445 333.272369,508.373688 341.967957,511.006012 
	C343.511444,511.473236 345.104767,511.775726 347.242065,512.471802 
	C352.352356,515.732422 356.822632,518.749451 359.044067,524.401855 
	C360.144470,531.635437 356.972473,536.415833 351.805023,540.254028 
	C350.564545,541.175415 349.262054,542.013306 347.988098,542.889587 
z"/>
<path fill="#000000" opacity="1.000000" stroke="none" 
	d="
M317.001709,460.367981 
	C324.488922,454.734589 338.377777,456.756866 342.130035,461.508270 
	C348.685455,469.809448 348.962250,481.824402 342.060974,490.678101 
	C332.447113,498.613800 324.421417,501.583435 315.022369,500.599487 
	C315.022369,494.953461 315.019836,489.214020 315.023071,483.474579 
	C315.026428,477.507355 314.910004,471.535614 315.123871,465.575806 
	C315.182434,463.944397 316.238800,462.348755 317.001709,460.367981 
z"/>
<path fill="#0072EA" opacity="1.000000" stroke="none" 
	d="
M359.124939,523.962219 
	C356.822632,518.749451 352.352356,515.732422 347.625763,512.487549 
	C347.854431,510.048920 348.266327,507.912079 348.646240,505.448364 
	C358.046478,507.465332 366.764343,510.836548 370.680725,521.116821 
	C366.952240,523.886292 363.939972,528.142212 359.124939,523.962219 
z"/>
<path fill="#F29909" opacity="1.000000" stroke="none" 
	d="
M237.034363,558.981995 
	C237.069733,558.948425 237.335114,559.215820 237.335114,559.215820 
	C237.335114,559.215820 237.052658,559.247498 236.993713,559.168213 
	C236.934769,559.088928 236.999008,559.015564 237.034363,558.981995 
z"/>
<path fill="#093DB6" opacity="1.000000" stroke="none" 
	d="
M320.515137,456.528259 
	C320.484100,456.542480 320.546143,456.514008 320.515137,456.528259 
z"/>
<path fill="#093DB6" opacity="1.000000" stroke="none" 
	d="
M359.044067,524.401855 
	C363.939972,528.142212 366.952240,523.886292 370.693085,521.492798 
	C371.393188,522.479004 371.776611,523.530212 372.267029,524.931763 
	C372.664368,536.376892 366.031036,542.495911 356.894226,546.809753 
	C355.247955,547.587036 353.585846,548.330811 351.583282,549.129517 
	C351.324432,548.223816 351.310913,547.253662 351.534149,546.341370 
	C351.716644,545.595886 352.181610,544.919556 352.734528,543.768799 
	C351.047546,543.589050 349.739594,543.449768 348.209869,543.099976 
	C349.262054,542.013306 350.564545,541.175415 351.805023,540.254028 
	C356.972473,536.415833 360.144470,531.635437 359.044067,524.401855 
z"/>
</svg>